<?xml version="1.0" encoding="utf-8"?>
<!-- Generator: Adobe Illustrator 27.5.0, SVG Export Plug-In . SVG Version: 6.00 Build 0)  -->
<svg version="1.1" id="Layer_1" xmlns="http://www.w3.org/2000/svg" xmlns:xlink="http://www.w3.org/1999/xlink" x="0px" y="0px"
	 viewBox="0 0 1080 500" style="enable-background:new 0 0 1080 500;" xml:space="preserve">
<style type="text/css">
	.Drop_x0020_Shadow{fill:none;}
	.Thick_x0020_Blue_x0020_Neon{fill:none;stroke:#0073BC;stroke-width:10;stroke-linecap:round;stroke-linejoin:round;}
	.Illuminating_x0020_Aqua{fill:url(#SVGID_1_);stroke:#FFFFFF;stroke-width:0.25;stroke-miterlimit:1;}
	
		.Black_x0020_Highlight{fill:url(#SVGID_00000066504758144185802220000000803905930905941404_);stroke:#FFFFFF;stroke-width:0.3629;stroke-miterlimit:1;}
	.Bugaboo_GS{fill-rule:evenodd;clip-rule:evenodd;fill:#FFDD00;}
	.st0{fill:url(#SVGID_00000148650092741063044340000017932062333499050147_);}
	.st1{fill:url(#SVGID_00000016068533317362820830000016652511013048286592_);}
	.st2{fill:url(#SVGID_00000049923558510615206520000008130192355855448766_);}
	.st3{fill:url(#SVGID_00000140003385083470665990000010165704689659949503_);}
	.st4{fill:url(#SVGID_00000079444128251796841390000007100916711525546135_);}
	.st5{fill:url(#SVGID_00000062191315367424245830000015640929796594672062_);}
	.st6{fill:#5A2C66;}
	.st7{fill:#9E2654;}
</style>
<linearGradient id="SVGID_1_" gradientUnits="userSpaceOnUse" x1="0" y1="0" x2="6.123234e-17" y2="-1">
	<stop  offset="0" style="stop-color:#1D59F4"/>
	<stop  offset="0.618" style="stop-color:#2D65EE"/>
	<stop  offset="0.6292" style="stop-color:#3864F3"/>
	<stop  offset="0.9831" style="stop-color:#00DDFC"/>
</linearGradient>
<linearGradient id="SVGID_00000034088737646590939860000014859012308747694505_" gradientUnits="userSpaceOnUse" x1="0" y1="0" x2="6.123234e-17" y2="-1">
	<stop  offset="0" style="stop-color:#060606"/>
	<stop  offset="0.618" style="stop-color:#000000"/>
	<stop  offset="0.6292" style="stop-color:#000000"/>
	<stop  offset="0.9831" style="stop-color:#000000"/>
</linearGradient>
<linearGradient id="SVGID_00000062155525750040412300000006414348466324830143_" gradientUnits="userSpaceOnUse" x1="156.3167" y1="336.6964" x2="116.5601" y2="164.492">
	<stop  offset="0" style="stop-color:#9E2654"/>
	<stop  offset="2.896267e-02" style="stop-color:#9B2655"/>
	<stop  offset="0.4432" style="stop-color:#78295E"/>
	<stop  offset="0.7816" style="stop-color:#622B64"/>
	<stop  offset="1" style="stop-color:#5A2C66"/>
</linearGradient>
<path style="fill:url(#SVGID_00000062155525750040412300000006414348466324830143_);" d="M114.9,165.7l-51.2,29.2
	c-6.8,4.3-6.1,8.2-0.3,11.8l39.4,22.5c11.7,6.9,17.9,17.7,17.8,32.9l0,82.9l58.1-33.4c9-5.1,13.7-14.3,14.2-27.7v-72.6
	c-0.4-9.6-4.4-17.5-13.3-23.3l-38-21.9C133.1,161.2,124.1,161.5,114.9,165.7z"/>
<linearGradient id="SVGID_00000179647482666090812800000016546797831467312312_" gradientUnits="userSpaceOnUse" x1="54.8843" y1="209.0189" x2="107.3402" y2="297.7346">
	<stop  offset="2.770450e-07" style="stop-color:#9E2654"/>
	<stop  offset="5.649729e-02" style="stop-color:#962756"/>
	<stop  offset="0.2804" style="stop-color:#7C295D"/>
	<stop  offset="0.5098" style="stop-color:#692B62"/>
	<stop  offset="0.7461" style="stop-color:#5E2C65"/>
	<stop  offset="1" style="stop-color:#5A2C66"/>
</linearGradient>
<path style="fill:url(#SVGID_00000179647482666090812800000016546797831467312312_);" d="M114.5,152.6c-9.2-4.3-17.6-4.9-25.2-0.9
	l-55,31.5c-1,0.6-2.1,1.1-3.1,1.7c-12.6,6.5-19,16.9-19.8,31.1v65.5c0.5,11.7,4,21.2,11.7,27.9c1.5,1.3,3.2,2.5,5,3.5l59.3,33.7
	c2,1.1,4.1,2.1,6.3,2.8c8.1,2.6,13.5,0.7,14.4-8.4v-78.4c-0.2-7.2-3-13.6-8.7-18.9c-2-1.9-4.3-3.5-6.8-4.9l-36.9-20.6
	c-7.5-4.6-15-3.7-22.6,2.8l49,27.3c8,4.4,12.1,10.5,12.4,18.3v59.2c0,7.9-3.8,8.1-9.5,4.4c-0.7-0.5-1.4-0.9-2.2-1.3l-44.1-25.5
	c-8.3-4.8-13.6-13.4-14-23c0-0.9,0-1.8,0-2.8l0-57c0-2,0.2-4.1,0.6-6.1c1.6-8.3,5.4-13.6,13.4-18.4c0.5-0.3,1-0.5,1.4-0.8
	L114.5,152.6z"/>
<linearGradient id="SVGID_00000134950564644975891990000004919045727105773749_" gradientUnits="userSpaceOnUse" x1="41.833" y1="251.4996" x2="91.4841" y2="320.6161">
	<stop  offset="2.770450e-07" style="stop-color:#9E2654"/>
	<stop  offset="0.2814" style="stop-color:#8A2859"/>
	<stop  offset="1" style="stop-color:#5A2C66"/>
</linearGradient>
<path style="fill:url(#SVGID_00000134950564644975891990000004919045727105773749_);" d="M41.5,244.9c-2.7,0.7-4.7,2.5-5.7,4.5
	c-0.2,0.4-0.1,0.9,0.3,1.1c1.9,1.1,3.5,0.4,5.1-0.8c1.3-1.2,1.7-2.7,1.4-4.3C42.5,245,42,244.8,41.5,244.9z"/>
<linearGradient id="SVGID_00000010295025749425802740000000252852223403211923_" gradientUnits="userSpaceOnUse" x1="41.5676" y1="253.2133" x2="91.3201" y2="322.471">
	<stop  offset="2.770450e-07" style="stop-color:#9E2654"/>
	<stop  offset="0.2616" style="stop-color:#752A5F"/>
	<stop  offset="0.4616" style="stop-color:#5A2C66"/>
</linearGradient>
<path style="fill:url(#SVGID_00000010295025749425802740000000252852223403211923_);" d="M39.6,257.1c-0.6,0.1-1.3,0.1-1.9,0
	c-4.3-0.9-5.1,0-5.9,1.5c-1.5,2.5-1,4.7,0.7,6.6c1.1,1.4,2.3,2,3.6,1.8c1.4-0.2,2.4-1.2,2.8-2.5l0.8-2.8c0.4-1.4,1.2-2.6,2.3-3.6
	c1.5-1.3,3.2-2.4,5-3.4c2.2-0.6,4.3-0.4,6,1l0,0c1.9,2,3.5,4.3,4.7,6.8l2.6,5c1.1,2.6,1.6,5.8,1.9,9c0.1,0.9,0.2,1.7,0.5,2.6
	c1.2,3.9,3.3,6,6.5,5.8c0.5,0,1-0.3,1.3-0.7c1.2-1.5,1.9-3.9,0.1-8c-0.7-1.8-2.4-3.6-4.5-5.1c-1.6-1.2-3.1-2.5-4.4-4.1l0,0
	c-0.3-0.3-0.5-0.7-0.7-1l-4.1-7.6c-0.2-0.5-0.4-1-0.6-1.4c-0.5-1.5-0.7-3.1-0.6-4.7c0.1-3-0.5-5.3-2.1-7c-2.8-3-5.3-1.3-5.7,0
	c0,0.1-0.8,5.7-1.2,6.4l0,0c-0.5,0.9-1.2,1.7-2,2.3l-2.9,2.2C41.1,256.7,40.4,257,39.6,257.1L39.6,257.1z"/>
<linearGradient id="SVGID_00000080172024317088903490000006653030385536841135_" gradientUnits="userSpaceOnUse" x1="40.8478" y1="251.0489" x2="90.4989" y2="320.1654">
	<stop  offset="2.770450e-07" style="stop-color:#9E2654"/>
	<stop  offset="0.1621" style="stop-color:#992655"/>
	<stop  offset="0.3669" style="stop-color:#89285A"/>
	<stop  offset="0.5938" style="stop-color:#6F2A60"/>
	<stop  offset="0.7443" style="stop-color:#5A2C66"/>
</linearGradient>
<path style="fill:url(#SVGID_00000080172024317088903490000006653030385536841135_);" d="M57.3,285.4c-0.3-0.3-0.6-0.9-0.9-1.9
	c-0.4-1.4-0.6-2.9-0.6-4.4c0-3.4-1.1-6.4-3.3-9c-2-2-3.5-2.5-4.8-1.6c-0.6,0.4-0.9,1.1-1.1,1.7c-0.7,3.5,0.1,6.3,2,8.6
	c1.2,2,2.9,3.6,4.9,4.7c1.2,1,2.1,2,2.8,3.1l4,7.5c0.6,1,1,2.2,1.3,3.3l0,0c0.2,0.9,0.4,1.9,0.3,2.8c-0.1,2.9,0.3,4.7,1,6
	c2,3.3,4.1,4.2,6.3,2.6c0.5-0.4,0.9-2.3,1.4-5.6c0.2-1.2,0.6-2.3,1.2-3.3v0c1.3-0.9,2.5-1.7,3.7-2.4c1.3-0.8,3.2-1.7,4.5-1
	c1.8,0.9,5.4-0.4,5.5-1.2c0,0,0,0,0,0s1.6-3,0.5-5.4c-1.4-2.8-3.3-4.3-6.1-3.2c-1.5,0.6-1.9,2.7-1.9,5.5c0,0.3-0.6,1.5-1.2,2.1
	c-1.8,1.7-3.5,3-5.5,4c-2,1.1-4,0.8-6.1-0.3c-1.1-0.5-2.1-1.5-3-3.4L57.3,285.4z"/>
<linearGradient id="SVGID_00000178189068663173865230000013863791495488243622_" gradientUnits="userSpaceOnUse" x1="39.8551" y1="251.7621" x2="89.5062" y2="320.8786">
	<stop  offset="2.770450e-07" style="stop-color:#9E2654"/>
	<stop  offset="2.798340e-02" style="stop-color:#952756"/>
	<stop  offset="0.1134" style="stop-color:#7F295C"/>
	<stop  offset="0.2142" style="stop-color:#6E2A61"/>
	<stop  offset="0.339" style="stop-color:#632B64"/>
	<stop  offset="0.514" style="stop-color:#5C2C66"/>
	<stop  offset="1" style="stop-color:#5A2C66"/>
</linearGradient>
<path style="fill:url(#SVGID_00000178189068663173865230000013863791495488243622_);" d="M76.2,308.5c2.6-1.1,4.5-2.6,5.7-4.6
	c0.2-0.4,0.1-0.8-0.2-1.1c-0.6-0.4-1.2-0.6-1.9-0.6c-2.5,0-4.7,1.8-4.9,4.3c0,0.4,0,0.9,0,1.3C75.1,308.3,75.7,308.7,76.2,308.5z"/>
<g>
	<path class="st6" d="M226.2,298.7v-94.1H248v94.1H226.2z"/>
	<path class="st6" d="M312.8,225.2c5.7,0,10.9,1.1,15.4,3.4c4.5,2.3,8.1,5.8,10.7,10.5c2.6,4.7,3.9,10.7,3.9,18.1v41.4h-21v-38.2
		c0-5.8-1.3-10.1-3.8-12.9c-2.6-2.8-6.2-4.2-10.8-4.2c-3.3,0-6.3,0.7-8.9,2.1c-2.6,1.4-4.7,3.5-6.2,6.4c-1.5,2.9-2.2,6.5-2.2,11
		v35.8h-21v-72.3h20v20l-3.8-6.1c2.6-4.8,6.3-8.6,11.2-11.2C301.1,226.5,306.6,225.2,312.8,225.2z"/>
	<path class="st6" d="M380,298.7l-30.4-72.3h21.7l25.3,62.3h-10.8l26.2-62.3h20.2l-30.5,72.3H380z"/>
	<path class="st6" d="M473.2,299.7c-7.7,0-14.5-1.6-20.5-4.8c-6-3.2-10.7-7.6-14.1-13.2c-3.5-5.6-5.2-12-5.2-19.2
		c0-7.3,1.7-13.7,5.2-19.3c3.5-5.6,8.2-10,14.1-13.2c6-3.2,12.8-4.8,20.5-4.8c7.6,0,14.4,1.6,20.4,4.8c6,3.2,10.7,7.6,14.1,13.1
		c3.4,5.6,5.1,12,5.1,19.4c0,7.2-1.7,13.6-5.1,19.2c-3.4,5.6-8.1,10-14.1,13.2C487.6,298.1,480.8,299.7,473.2,299.7z M473.2,282.5
		c3.5,0,6.6-0.8,9.4-2.4c2.8-1.6,5-3.9,6.6-6.9c1.6-3,2.4-6.6,2.4-10.7c0-4.2-0.8-7.8-2.4-10.8c-1.6-3-3.8-5.2-6.6-6.9
		c-2.8-1.6-5.9-2.4-9.4-2.4c-3.5,0-6.6,0.8-9.4,2.4c-2.8,1.6-5,3.9-6.7,6.9c-1.7,3-2.5,6.5-2.5,10.8c0,4.1,0.8,7.7,2.5,10.7
		c1.7,3,3.9,5.3,6.7,6.9C466.6,281.7,469.7,282.5,473.2,282.5z"/>
	<path class="st6" d="M537.3,216.2c-3.9,0-7-1.1-9.4-3.4c-2.4-2.2-3.6-5-3.6-8.3c0-3.3,1.2-6.1,3.6-8.3c2.4-2.2,5.6-3.4,9.4-3.4
		c3.9,0,7,1.1,9.4,3.2c2.4,2.1,3.6,4.8,3.6,8.1c0,3.5-1.2,6.4-3.6,8.7C544.4,215.1,541.3,216.2,537.3,216.2z M526.9,298.7v-72.3h21
		v72.3H526.9z"/>
	<path class="st6" d="M602.3,299.7c-7.8,0-14.7-1.6-20.8-4.8c-6.1-3.2-10.9-7.6-14.3-13.2c-3.5-5.6-5.2-12.1-5.2-19.2
		c0-7.3,1.7-13.7,5.2-19.3c3.5-5.6,8.2-10,14.3-13.2c6.1-3.2,13-4.8,20.8-4.8c7.6,0,14.3,1.6,19.9,4.8c5.6,3.2,9.8,7.7,12.5,13.6
		l-16.3,8.7c-1.9-3.4-4.2-5.9-7.1-7.5c-2.8-1.6-5.9-2.4-9.2-2.4c-3.6,0-6.8,0.8-9.7,2.4c-2.9,1.6-5.1,3.9-6.8,6.9
		c-1.7,3-2.5,6.5-2.5,10.8c0,4.2,0.8,7.8,2.5,10.8c1.7,3,3.9,5.2,6.8,6.9c2.9,1.6,6.1,2.4,9.7,2.4c3.3,0,6.4-0.8,9.2-2.4
		c2.8-1.6,5.2-4.1,7.1-7.6l16.3,8.9c-2.7,5.8-6.9,10.3-12.5,13.5C616.5,298.1,609.9,299.7,602.3,299.7z"/>
	<path class="st6" d="M681.8,299.7c-8.2,0-15.5-1.6-21.7-4.8c-6.2-3.2-11-7.6-14.5-13.2c-3.4-5.6-5.1-12-5.1-19.2
		c0-7.3,1.7-13.7,5-19.3c3.4-5.6,8-10,13.8-13.2c5.8-3.2,12.4-4.8,19.8-4.8c7.1,0,13.5,1.5,19.2,4.5c5.7,3,10.2,7.3,13.5,12.9
		c3.3,5.6,5,12.3,5,20.1c0,0.8,0,1.7-0.1,2.8c-0.1,1-0.2,2-0.3,2.9h-58.8v-12.2h47.7l-8.1,3.6c0-3.8-0.8-7-2.3-9.8
		c-1.5-2.8-3.6-5-6.3-6.5c-2.7-1.6-5.8-2.4-9.4-2.4c-3.6,0-6.7,0.8-9.5,2.4c-2.7,1.6-4.9,3.8-6.4,6.6c-1.5,2.8-2.3,6.2-2.3,10v3.2
		c0,3.9,0.9,7.4,2.6,10.4c1.7,3,4.2,5.3,7.4,6.9c3.2,1.6,6.9,2.4,11.2,2.4c3.9,0,7.2-0.6,10.2-1.7c2.9-1.2,5.6-2.9,8-5.2l11.2,12.1
		c-3.3,3.8-7.5,6.7-12.5,8.7C694.1,298.7,688.3,299.7,681.8,299.7z"/>
	<path class="st7" d="M732.2,298.7v-94.1h18l40.1,66.4h-9.5l39.4-66.4H838l0.3,94.1h-20.4l-0.1-62.8h3.8L790,288.7h-9.8l-32.1-52.8
		h4.6v62.8H732.2z"/>
	<path class="st7" d="M881.5,299.7c-5.6,0-10.5-1-14.5-2.9c-4-1.9-7.1-4.5-9.3-7.9c-2.2-3.3-3.2-7-3.2-11.2c0-4.3,1.1-8.1,3.2-11.3
		c2.1-3.2,5.4-5.8,10-7.6c4.6-1.8,10.5-2.8,17.9-2.8h19.2v12.2h-16.9c-4.9,0-8.3,0.8-10.2,2.4c-1.8,1.6-2.8,3.6-2.8,6.1
		c0,2.7,1.1,4.8,3.2,6.4c2.1,1.6,5,2.4,8.7,2.4c3.5,0,6.6-0.8,9.4-2.5c2.8-1.7,4.8-4.1,6.1-7.3l3.2,9.7c-1.5,4.7-4.3,8.2-8.3,10.6
		C893,298.5,887.8,299.7,881.5,299.7z M903.5,298.7v-14.1l-1.3-3.1v-25.3c0-4.5-1.4-8-4.1-10.5c-2.7-2.5-6.9-3.8-12.6-3.8
		c-3.9,0-7.6,0.6-11.4,1.8c-3.7,1.2-6.9,2.8-9.5,4.9l-7.5-14.7c3.9-2.8,8.7-4.9,14.3-6.5c5.6-1.5,11.2-2.3,16.9-2.3
		c11,0,19.6,2.6,25.7,7.8c6.1,5.2,9.1,13.3,9.1,24.3v41.3H903.5z"/>
	<path class="st7" d="M933.5,244.1v-16.1h50.2v16.1H933.5z M971.7,299.7c-8.5,0-15.2-2.2-19.9-6.5c-4.8-4.3-7.1-10.8-7.1-19.4v-63.5
		h21v63.2c0,3,0.8,5.4,2.4,7.1c1.6,1.7,3.8,2.5,6.6,2.5c3.3,0,6.1-0.9,8.5-2.7l5.6,14.8c-2.2,1.5-4.7,2.7-7.7,3.4
		C978,299.3,974.9,299.7,971.7,299.7z"/>
	<path class="st7" d="M1034.2,299.7c-8.2,0-15.5-1.6-21.7-4.8c-6.2-3.2-11-7.6-14.5-13.2c-3.4-5.6-5.1-12-5.1-19.2
		c0-7.3,1.7-13.7,5-19.3c3.4-5.6,8-10,13.8-13.2c5.8-3.2,12.4-4.8,19.8-4.8c7.1,0,13.5,1.5,19.2,4.5c5.7,3,10.2,7.3,13.5,12.9
		c3.3,5.6,5,12.3,5,20.1c0,0.8,0,1.7-0.1,2.8c-0.1,1-0.2,2-0.3,2.9H1010v-12.2h47.7l-8.1,3.6c0-3.8-0.8-7-2.3-9.8
		c-1.5-2.8-3.6-5-6.3-6.5c-2.7-1.6-5.8-2.4-9.4-2.4c-3.6,0-6.7,0.8-9.5,2.4c-2.7,1.6-4.9,3.8-6.4,6.6c-1.5,2.8-2.3,6.2-2.3,10v3.2
		c0,3.9,0.9,7.4,2.6,10.4c1.7,3,4.2,5.3,7.4,6.9c3.2,1.6,6.9,2.4,11.2,2.4c3.9,0,7.2-0.6,10.2-1.7c2.9-1.2,5.6-2.9,8-5.2l11.2,12.1
		c-3.3,3.8-7.5,6.7-12.5,8.7C1046.6,298.7,1040.8,299.7,1034.2,299.7z"/>
</g>
<g>
</g>
<g>
</g>
<g>
</g>
<g>
</g>
<g>
</g>
<g>
</g>
<g>
</g>
<g>
</g>
<g>
</g>
<g>
</g>
<g>
</g>
</svg>
